<svg width="48" height="48" viewBox="0 0 48 48" fill="none" xmlns="http://www.w3.org/2000/svg">
<path d="M23.9601 18.6788C25.0232 18.6768 26.063 18.9904 26.9478 19.5798C27.8326 20.1692 28.5226 21.008 28.9304 21.9898C29.3381 22.9716 29.4453 24.0524 29.2384 25.0952C29.0315 26.138 28.5197 27.096 27.768 27.8477C27.0162 28.5995 26.0583 29.1112 25.0155 29.3181C23.9727 29.5251 22.8919 29.4179 21.91 29.0101C20.9282 28.6023 20.0895 27.9124 19.5001 27.0276C18.9106 26.1428 18.5971 25.103 18.599 24.0398C18.6017 22.6188 19.1673 21.2567 20.1722 20.2519C21.177 19.2471 22.5391 18.6814 23.9601 18.6788ZM23.9601 14.6854C22.1076 14.6854 20.2967 15.2349 18.7565 16.2643C17.2163 17.2937 16.016 18.7568 15.3076 20.4685C14.5991 22.1802 14.4142 24.0636 14.7764 25.8804C15.1385 27.6972 16.0314 29.3657 17.342 30.675C18.6526 31.9842 20.3221 32.8753 22.1393 33.2355C23.9565 33.5957 25.8397 33.4088 27.5506 32.6985C29.2616 31.9882 30.7234 30.7864 31.7512 29.2451C32.7789 27.7039 33.3265 25.8924 33.3245 24.0398C33.3245 22.8106 33.0822 21.5933 32.6115 20.4578C32.1407 19.3222 31.4508 18.2905 30.5811 17.4217C29.7114 16.553 28.679 15.8641 27.5429 15.3946C26.4069 14.9251 25.1894 14.6841 23.9601 14.6854Z" fill="white"/>
<path d="M46.0033 21.9634H43.1082C42.6304 17.5902 40.6668 13.5133 37.5453 10.4136C34.4237 7.3138 30.3331 5.37882 25.9567 4.93178V1.99667C25.9567 1.46712 25.7464 0.95926 25.3719 0.584812C24.9975 0.210363 24.4896 0 23.9601 0C23.4305 0 22.9227 0.210363 22.5482 0.584812C22.1738 0.95926 21.9634 1.46712 21.9634 1.99667V4.93178C17.6013 5.39599 13.5294 7.33855 10.4239 10.4368C7.31836 13.535 5.36627 17.6024 4.89185 21.9634H1.99667C1.46712 21.9634 0.95926 22.1738 0.584812 22.5482C0.210363 22.9227 0 23.4305 0 23.9601C0 24.4896 0.210363 24.9975 0.584812 25.3719C0.95926 25.7464 1.46712 25.9567 1.99667 25.9567H4.88186C5.32015 30.3497 7.25755 34.4578 10.3683 37.5904C13.4791 40.723 17.5736 42.6891 21.9634 43.1581V46.0033C21.9634 46.5329 22.1738 47.0407 22.5482 47.4152C22.9227 47.7896 23.4305 48 23.9601 48C24.4896 48 24.9975 47.7896 25.3719 47.4152C25.7464 47.0407 25.9567 46.5329 25.9567 46.0033V43.1581C30.3616 42.7082 34.4757 40.7503 37.6029 37.6158C40.7302 34.4813 42.6785 30.3626 43.1181 25.9567H46.0033C46.5329 25.9567 47.0407 25.7464 47.4152 25.3719C47.7896 24.9975 48 24.4896 48 23.9601C48 23.4305 47.7896 22.9227 47.4152 22.5482C47.0407 22.1738 46.5329 21.9634 46.0033 21.9634ZM23.9601 39.2646C20.9506 39.2567 18.011 38.3571 15.5126 36.6794C13.0142 35.0017 11.069 32.6212 9.92285 29.8385C8.77666 27.0559 8.48085 23.996 9.0728 21.0454C9.66474 18.0947 11.1179 15.3857 13.2487 13.2605C15.3795 11.1352 18.0923 9.68921 21.0445 9.10499C23.9967 8.52077 27.0558 8.82459 29.8354 9.97807C32.615 11.1316 34.9904 13.0829 36.6616 15.5857C38.3327 18.0886 39.2246 21.0305 39.2246 24.0399C39.222 26.0419 38.8251 28.0237 38.0566 29.8723C37.288 31.7208 36.1629 33.3999 34.7455 34.8136C33.328 36.2274 31.646 37.3481 29.7954 38.1118C27.9449 38.8755 25.962 39.2672 23.9601 39.2646Z" fill="white"/>
</svg>
