<svg width="20" height="9" viewBox="0 0 20 9" fill="none" xmlns="http://www.w3.org/2000/svg">
<path d="M15.176 8.77059C14.9069 8.47939 14.9069 8.01776 15.176 7.7266L17.5442 5.25069L0.719178 5.25069C0.32198 5.25069 0 4.91427 0 4.49926C0 4.08426 0.32198 3.74784 0.719178 3.74784L17.5443 3.74784L15.176 1.27342C14.9001 0.974911 14.908 0.499233 15.1937 0.210938C15.4724 -0.0703127 15.9142 -0.0703127 16.1929 0.210938L19.7887 3.96798C20.0699 4.26107 20.0705 4.73684 19.79 5.03064L19.7887 5.032L16.1929 8.78904C15.9072 9.07738 15.452 9.0691 15.176 8.77059Z" fill="white"/>
</svg>
