<svg width="14" height="14" viewBox="0 0 14 14" fill="none" xmlns="http://www.w3.org/2000/svg">
<path d="M0.538472 9.64252C0.835867 9.64252 1.07694 9.88236 1.07694 10.1782V12.3925C1.07694 12.6884 1.31802 12.9282 1.61541 12.9282H12.3846C12.682 12.9282 12.9231 12.6884 12.9231 12.3925V10.1782C12.9231 9.88236 13.1641 9.64252 13.4615 9.64252C13.7589 9.64252 14 9.88236 14 10.1782V12.3925C14 13.2801 13.2768 13.9997 12.3846 13.9997H1.61538C0.72323 13.9997 9.53674e-07 13.2801 9.53674e-07 12.3925V10.1782C9.53674e-07 9.88236 0.241077 9.64252 0.538472 9.64252Z" fill="white"/>
<path d="M3.93912 7.2641C4.14779 7.06362 4.4786 7.06362 4.68724 7.2641L6.46148 9.02819V0.535724C6.46148 0.239847 6.70256 0 6.99995 0C7.29735 0 7.53842 0.239847 7.53842 0.535724V9.02822L9.31159 7.2641C9.5255 7.05857 9.86637 7.06447 10.073 7.27726C10.2745 7.48487 10.2745 7.81399 10.073 8.0216L7.38067 10.7002C7.17064 10.9096 6.8297 10.9101 6.61917 10.7011L6.61819 10.7002L3.9259 8.0216C3.71927 7.80878 3.72521 7.46964 3.93912 7.2641Z" fill="white"/>
</svg>
