<svg width="40" height="48" viewBox="0 0 40 48" fill="none" xmlns="http://www.w3.org/2000/svg">
<path d="M19.28 0.0129651C8.44 0.402965 0 9.64296 0 20.493V27.573C0 28.2201 0.257071 28.8407 0.714659 29.2983C1.17225 29.7559 1.79287 30.013 2.44 30.013H4.56C5.20713 30.013 5.82775 29.7559 6.28534 29.2983C6.74293 28.8407 7 28.2201 7 27.573V20.453C7 19.8058 6.74293 19.1852 6.28534 18.7276C5.82775 18.27 5.20713 18.013 4.56 18.013H4.14C4.63591 14.0621 6.5872 10.4381 9.61256 7.84913C12.6379 5.26019 16.5199 3.89237 20.5 4.01297C24.2843 4.19084 27.8868 5.68859 30.6818 8.24609C33.4768 10.8036 35.2877 14.2593 35.8 18.013H35.44C34.7929 18.013 34.1722 18.27 33.7147 18.7276C33.2571 19.1852 33 19.8058 33 20.453V27.573C32.997 28.2039 33.2394 28.8112 33.6761 29.2666C34.1128 29.7219 34.7095 29.9896 35.34 30.013C34.9062 33.2246 33.4767 36.2195 31.2525 38.5765C29.0282 40.9334 26.1211 42.534 22.94 43.153C22.6024 42.4813 22.048 41.9431 21.3666 41.6255C20.6851 41.308 19.9165 41.2296 19.185 41.4031C18.4535 41.5766 17.8019 41.9918 17.3357 42.5816C16.8694 43.1714 16.6158 43.9012 16.6158 44.653C16.6158 45.4048 16.8694 46.1346 17.3357 46.7243C17.8019 47.3141 18.4535 47.7293 19.185 47.9028C19.9165 48.0763 20.6851 47.9979 21.3666 47.6804C22.048 47.3628 22.6024 46.8247 22.94 46.153C26.9476 45.5109 30.6326 43.568 33.4266 40.6241C36.2205 37.6801 37.9682 33.8986 38.4 29.863C38.8683 29.6898 39.2724 29.3776 39.5584 28.9684C39.8443 28.5591 39.9984 28.0722 40 27.573V20.013C40.0017 17.3248 39.4616 14.6639 38.4117 12.1893C37.3619 9.71459 35.824 7.47696 33.8899 5.61006C31.9558 3.74316 29.6652 2.28531 27.155 1.32364C24.6447 0.361961 21.9664 -0.0838084 19.28 0.0129651Z" fill="white"/>
</svg>
