<svg width="12" height="24" viewBox="0 0 12 24" fill="none" xmlns="http://www.w3.org/2000/svg">
<path d="M10.3636 5.45455V18C10.3636 20.4109 8.41091 22.3636 6 22.3636C3.58909 22.3636 1.63636 20.4109 1.63636 18V4.36364C1.63636 2.85818 2.85818 1.63636 4.36364 1.63636C5.86909 1.63636 7.09091 2.85818 7.09091 4.36364V15.8182C7.09091 16.4182 6.60545 16.9091 6 16.9091C5.39455 16.9091 4.90909 16.4182 4.90909 15.8182V5.45455H3.27273V15.8182C3.27273 17.3236 4.49455 18.5455 6 18.5455C7.50545 18.5455 8.72727 17.3236 8.72727 15.8182V4.36364C8.72727 1.95273 6.77455 0 4.36364 0C1.95273 0 0 1.95273 0 4.36364V18C0 21.3164 2.68909 24 6 24C9.31091 24 12 21.3164 12 18V5.45455H10.3636Z" fill="#383838"/>
</svg>
